<?xml version="1.0" encoding="utf-8"?>
<!-- Generator: Adobe Illustrator 19.2.1, SVG Export Plug-In . SVG Version: 6.00 Build 0)  -->
<svg version="1.1" id="Layer_1" xmlns="http://www.w3.org/2000/svg" xmlns:xlink="http://www.w3.org/1999/xlink" x="0px" y="0px"
	 viewBox="0 0 143.3 53.1" style="enable-background:new 0 0 143.3 53.1;" xml:space="preserve">
<style type="text/css">
	.st0{display:none;}
	.st1{display:inline;}
</style>
<g id="Logo">
	<g id="_x32_px_Stroke" class="st0">
		<path class="st1" d="M169.5-71.5v196h-196v-196H169.5 M171.5-73.5h-200v200h200V-73.5L171.5-73.5z"/>
	</g>
	<g>
		<path d="M10,44.1c0.4-0.2,0.9,0.2,0.9,0.7c0,0.5-0.8,0.8-1.1,0.4C9.4,44.9,9.6,44.2,10,44.1L10,44.1z"/>
		<path d="M58.5,44.5c0.6-0.5,1.5-0.4,2.2-0.3c0,0.3-0.1,0.6-0.2,0.9c-0.5-0.1-1-0.2-1.4,0.1c-0.4,0.4-0.4,1-0.4,1.5
			c0.5,0,1,0,1.5,0c0,0.3,0,0.6,0,0.9c-0.5,0-1,0-1.5,0c0,1.8,0,3.7,0,5.5c-0.3,0-0.6,0-0.9,0c0-1.8,0-3.7,0-5.5c-0.4,0-0.9,0-1.3,0
			c0-0.3,0-0.6,0-0.9c0.4,0,0.9,0,1.3,0C57.7,45.8,57.8,45,58.5,44.5L58.5,44.5z"/>
		<path d="M76.2,44.1c0.3,0,0.6,0,0.9,0c0,1.2,0,2.3,0,3.5c0.5-0.7,1.3-1.2,2.2-1.1c0.7,0,1.5,0.2,1.9,0.8c0.5,0.7,0.4,1.6,0.4,2.4
			c0,1.1,0,2.2,0,3.3c-0.3,0-0.6,0-0.9,0c0-1.2,0-2.3,0-3.5c0-0.6-0.1-1.3-0.5-1.8c-0.6-0.6-1.7-0.5-2.3,0c-0.6,0.5-0.8,1.3-0.8,2
			c0,1.1,0,2.2,0,3.3c-0.3,0-0.6,0-0.9,0C76.2,50,76.2,47,76.2,44.1L76.2,44.1z"/>
		<path d="M84.4,44.1c0.4-0.2,1,0.2,1,0.7c0,0.5-0.7,0.8-1.1,0.5C83.9,45,83.9,44.3,84.4,44.1L84.4,44.1z"/>
		<path d="M126.4,44.1c0.4-0.2,1,0.2,0.9,0.7c0,0.5-0.8,0.8-1.1,0.4C125.9,44.9,126,44.3,126.4,44.1L126.4,44.1z"/>
		<path d="M122.7,44.2c0.3,0,0.6,0,0.9,0c0,2.9,0,5.9,0,8.8c-0.3,0-0.6,0-0.9,0C122.7,50,122.7,47.1,122.7,44.2L122.7,44.2z"/>
		<path d="M13.4,47c0.7-0.6,1.6-0.7,2.5-0.5c0.6,0.1,1.2,0.5,1.5,1.1c-0.3,0.2-0.6,0.4-0.8,0.6c-0.4-0.9-1.7-1.1-2.4-0.5
			c-0.4,0.3-0.3,1,0.1,1.3c0.9,0.5,2,0.3,2.7,1c0.9,0.7,0.8,2.3-0.2,2.8c-0.6,0.4-1.4,0.4-2.2,0.4c-0.8,0-1.5-0.5-2-1.2
			c0.3-0.2,0.5-0.4,0.8-0.5c0.5,0.9,1.8,1.2,2.7,0.7c0.5-0.2,0.7-1,0.2-1.4c-0.5-0.4-1.2-0.4-1.8-0.6c-0.6-0.1-1.3-0.5-1.6-1.1
			C12.8,48.3,12.9,47.5,13.4,47L13.4,47z"/>
		<path d="M19.9,47.5c1.2-1.4,3.8-1.4,4.9,0.1c-0.3,0.2-0.5,0.4-0.8,0.6c-0.7-1.1-2.4-1.1-3.3-0.2c-1,1.1-0.9,3,0.2,3.9
			c0.9,0.7,2.4,0.6,3.1-0.4c0.3,0.2,0.5,0.4,0.8,0.6c-0.5,0.5-1.2,1-1.9,1c-0.8,0-1.6,0.1-2.3-0.4C18.9,51.7,18.6,49,19.9,47.5
			L19.9,47.5z"/>
		<path d="M50.4,46.7c0.5-0.3,1.1-0.2,1.7-0.2c-0.1,0.3-0.1,0.6-0.2,0.9c-0.4,0-0.8-0.1-1.2,0.1c-0.8,0.3-1.3,1.1-1.3,1.9
			c0,1.2,0,2.4,0,3.6c-0.3,0-0.6,0-0.9,0c0-2.1,0-4.3-0.1-6.4c0.3,0,0.6,0,0.9,0c0,0.4,0,0.7,0,1.1C49.6,47.3,49.9,46.9,50.4,46.7
			L50.4,46.7z"/>
		<path d="M70.1,47.1c0.7-0.6,1.7-0.7,2.6-0.6c0.6,0.1,1.1,0.5,1.4,1.1c-0.3,0.2-0.6,0.4-0.8,0.6c-0.4-0.9-1.7-1.1-2.4-0.5
			c-0.4,0.3-0.4,1,0.1,1.3c0.9,0.5,2.1,0.3,2.9,1.1c0.5,0.5,0.6,1.2,0.4,1.9c-0.3,0.8-1.2,1.2-2,1.2c-0.6,0-1.2,0.1-1.8-0.2
			c-0.5-0.2-0.8-0.6-1.1-1c0.3-0.2,0.5-0.4,0.8-0.5c0.5,0.9,1.8,1.2,2.7,0.7c0.4-0.3,0.6-1,0.2-1.3c-0.5-0.4-1.2-0.4-1.8-0.6
			c-0.6-0.1-1.3-0.5-1.6-1.1C69.5,48.3,69.6,47.5,70.1,47.1L70.1,47.1z"/>
		<path d="M96.9,47.6c0.5-0.6,1.1-1,1.9-1.1c0.7-0.1,1.6,0.1,2.1,0.6c0.5,0.5,0.6,1.2,0.6,1.9c0,1.3,0,2.7,0,4c-0.3,0-0.6,0-0.9,0
			c0-1.2,0-2.4,0-3.6c0-0.6-0.1-1.3-0.6-1.7c-0.7-0.6-1.8-0.4-2.5,0.2c-0.5,0.5-0.6,1.3-0.6,1.9c0,1.1,0,2.1,0,3.2
			c-0.3,0-0.6,0-0.9,0c0-2.1,0.1-4.3-0.1-6.4c0.3,0,0.6,0,1,0C96.9,46.9,96.9,47.2,96.9,47.6L96.9,47.6z"/>
		<path d="M115.6,47.6c0.5-0.6,1.1-1.1,1.9-1.1c0.7-0.1,1.6,0.1,2.1,0.7c0.5,0.5,0.6,1.3,0.6,2c0,1.3,0,2.6,0,3.9
			c-0.3,0-0.6,0-0.9,0c0-1.2,0-2.4,0-3.5c0-0.6-0.1-1.3-0.5-1.8c-0.8-0.6-2-0.4-2.6,0.3c-0.4,0.5-0.5,1.2-0.5,1.8c0,1.1,0,2.1,0,3.2
			c-0.3,0-0.6,0-0.9,0c0-2.1,0.1-4.3-0.1-6.4c0.3,0,0.6,0,1,0C115.7,46.9,115.7,47.2,115.6,47.6L115.6,47.6z"/>
		<path d="M130.6,47.6c0.5-0.7,1.4-1.2,2.3-1.1c0.7,0,1.4,0.2,1.8,0.8c0.4,0.6,0.5,1.3,0.5,2c0,1.3,0,2.5,0,3.8c-0.3,0-0.6,0-0.9,0
			c0-1.2,0-2.4,0-3.6c0-0.6-0.1-1.3-0.6-1.7c-0.8-0.6-2-0.4-2.6,0.4c-0.4,0.5-0.5,1.1-0.5,1.7c0,1.1,0,2.2,0,3.3c-0.3,0-0.6,0-0.9,0
			c0-2.1,0.1-4.3-0.1-6.4c0.3,0,0.6,0,1,0C130.6,46.9,130.6,47.2,130.6,47.6L130.6,47.6z"/>
		<path d="M9.8,46.6c0.3,0,0.6,0,0.9,0c0,2.1,0,4.3,0,6.4c-0.3,0-0.6,0-0.9,0C9.8,50.8,9.8,48.7,9.8,46.6L9.8,46.6z"/>
		<path d="M33.3,46.6c0.4,0,0.7,0,1.1,0c0.1,0.1,0.1,0.3,0.2,0.4c0.6,1.6,1.2,3.3,1.9,4.9c0.7-1.8,1.3-3.6,2-5.3c0.4,0,0.7,0,1.1,0
			c-0.9,2.1-1.7,4.3-2.6,6.4c-0.3,0-0.7,0-1,0C35,50.8,34.2,48.7,33.3,46.6L33.3,46.6z"/>
		<path d="M84.2,46.6c0.3,0,0.6,0,0.9,0c0,2.1,0,4.3,0,6.4c-0.3,0-0.6,0-0.9,0C84.2,50.8,84.2,48.7,84.2,46.6L84.2,46.6z"/>
		<path d="M126.2,46.6c0.3,0,0.6,0,0.9,0c0,2.1,0,4.3,0,6.4c-0.3,0-0.6,0-0.9,0C126.2,50.8,126.2,48.7,126.2,46.6L126.2,46.6z"/>
		<path d="M7.2,44.1c-0.3,0-0.6,0-0.9,0c0,1.2,0,2.3,0,3.5c-1.2-1.5-3.6-1.5-4.9-0.3c-1.4,1.3-1.3,3.8,0.2,5
			c0.6,0.6,1.5,0.8,2.3,0.7c0.9,0.1,1.8-0.4,2.4-1.1c0,0.3,0,0.7,0,1c0.3,0,0.6,0,0.9,0C7.2,50,7.2,47,7.2,44.1z M5.6,51.6
			c-0.8,0.9-2.3,1-3.3,0.3c-0.9-0.7-1.1-2.1-0.7-3.1c0.2-0.7,0.8-1.2,1.5-1.3c1-0.3,2.1,0.1,2.7,0.9C6.5,49.2,6.4,50.7,5.6,51.6z"/>
		<path d="M31.5,47.1c-0.9-0.7-2-0.8-3.1-0.6c-0.7,0.2-1.4,0.6-1.8,1.2c-0.7,1-0.8,2.4-0.3,3.5c0.4,0.9,1.2,1.6,2.2,1.8
			c0.6,0.1,1.2,0.1,1.8,0c1-0.2,2-1,2.3-2C33,49.7,32.6,48,31.5,47.1z M31.1,51.5c-0.8,0.9-2.3,1-3.2,0.3c-0.9-0.7-1.1-2-0.7-3
			c0.2-0.7,0.8-1.2,1.5-1.4c0.9-0.3,1.9,0,2.5,0.6C31.9,49,31.9,50.6,31.1,51.5z"/>
		<path d="M46.5,50.1c0.1-1-0.2-2.1-0.9-2.8c-1-1-2.6-1.1-3.8-0.4c-1.4,0.8-1.9,2.7-1.3,4.1c0.3,1,1.2,1.7,2.1,2
			c0.5,0.1,0.9,0.1,1.4,0.1c0.9,0,1.7-0.6,2.3-1.3c-0.2-0.2-0.5-0.4-0.7-0.6c-0.6,0.8-1.7,1.3-2.7,1c-1-0.3-1.6-1.2-1.7-2.2
			C42.9,50,44.7,50.1,46.5,50.1z M41.2,49.3c0.1-1.1,1-1.9,2.1-2c0.6,0,1.3,0.2,1.8,0.7c0.3,0.4,0.4,0.9,0.5,1.3
			C44,49.3,42.6,49.3,41.2,49.3z"/>
		<path d="M67.6,46.6c-0.3,0-0.6,0-0.9,0c0,0.2,0,0.4,0,0.6c-1.4-1.1-3.5-1.1-4.8,0.2c-1.4,1.4-1.1,4.2,0.6,5.2
			c0.8,0.5,1.7,0.5,2.6,0.4c0.6-0.1,1.1-0.4,1.6-0.7c0,0.2,0,0.4,0,0.6c0.3,0,0.6,0,0.9,0C67.6,50.9,67.6,48.7,67.6,46.6z
			 M65.9,51.8c-0.9,0.7-2.2,0.7-3.1,0c-0.8-0.7-1-2-0.6-3c0.2-0.6,0.8-1.2,1.4-1.4c0.9-0.3,2,0,2.6,0.7C67,49.2,66.9,50.9,65.9,51.8
			z"/>
		<path d="M92.8,47.2c-0.9-0.7-2.1-0.9-3.2-0.6c-0.7,0.2-1.3,0.6-1.7,1.1c-1.2,1.5-0.9,3.9,0.8,4.9c0.8,0.5,1.8,0.5,2.7,0.4
			c1.1-0.2,2-0.9,2.4-1.9C94.3,49.8,94,48.1,92.8,47.2z M92.1,51.8c-0.8,0.6-2.1,0.6-2.9,0c-0.9-0.7-1.2-2.2-0.7-3.2
			c0.3-0.6,0.8-1,1.4-1.2c0.9-0.3,1.9,0,2.5,0.6C93.3,49.1,93.2,50.9,92.1,51.8z"/>
		<path d="M111.7,47.2c-0.9-0.7-2.1-0.9-3.2-0.6c-0.8,0.2-1.5,0.7-1.9,1.3c-1,1.5-0.6,3.9,1,4.8c0.8,0.5,1.7,0.4,2.6,0.4
			c1.1-0.2,2.1-1,2.5-2.1C113.1,49.6,112.8,48,111.7,47.2z M111.3,51.5c-0.8,0.9-2.2,1-3.2,0.3c-1-0.7-1.2-2.1-0.8-3.2
			c0.2-0.6,0.8-1.1,1.4-1.3c0.9-0.3,1.9-0.1,2.5,0.6C112.1,49,112.1,50.6,111.3,51.5z"/>
		<path d="M143.2,50.1c0.1-0.9,0-1.8-0.6-2.5c-1-1.4-3.4-1.5-4.6-0.3c-1.5,1.4-1.4,4.2,0.4,5.3c0.8,0.6,1.8,0.5,2.7,0.4
			c0.8-0.1,1.4-0.7,1.9-1.2c-0.2-0.2-0.5-0.4-0.7-0.6c-0.6,0.8-1.6,1.3-2.6,1c-1-0.2-1.7-1.2-1.8-2.2
			C139.7,50,141.5,50.1,143.2,50.1z M138,49.3c0.1-1.2,1.4-2.2,2.6-2c0.5,0.1,1,0.3,1.4,0.8c0.3,0.3,0.3,0.8,0.4,1.2
			C140.9,49.3,139.4,49.3,138,49.3z"/>
		<path d="M140.1,21.7c-1.9-1.9-4.3-3.1-6.8-3.9c-3.3-1.2-6.9-1.4-10.2-2.7c-1.1-0.4-2.2-1-2.9-1.8c-1-1.2-1.3-2.9-0.6-4.4
			c0.4-0.9,1.2-1.6,2.1-2c1.5-0.7,3.1-0.8,4.7-0.7c1.6,0.1,3.3,0.7,4.5,1.8c1,0.9,1.7,2.3,2,3.6c0,0.4,0.3,0.7,0.7,0.7
			c2.6,0,5.2,0.1,7.8,0.1c0.4,0,0.7-0.3,0.6-0.7c-0.3-2.1-1-4.1-2.2-5.8c-1.4-2.1-3.6-3.7-5.9-4.6c-2.2-0.9-4.5-1.3-6.9-1.4h-2.7
			c-2.9,0.2-5.8,0.6-8.4,1.8c-1.9,0.9-3.7,2.2-4.8,4c-1.1,1.7-1.5,3.8-1.5,5.8c-1.4-2.9-3.5-5.3-6-7.3C100.2,1.7,96,0.2,91.8,0h-2.2
			c-2.9,0.2-5.8,1-8.3,2.3c-3.8,2-6.9,5.2-8.9,8.9c-0.3-1.6-0.8-3.2-1.7-4.6c-1.1-1.9-2.8-3.5-4.7-4.5c-2.6-1.4-5.5-2-8.4-2.2h-2.8
			c-2.1,0.1-4.2,0.4-6.2,1c-2.4,0.7-4.6,1.9-6.2,3.8c-0.9,1.1-1.5,2.4-1.9,3.7c0-2.2,0-4.4,0-6.6c0-0.2,0-0.5-0.2-0.7
			C40,1,39.8,1,39.5,1c-2.3,0-4.7,0-7,0c-0.4,0-0.6,0.3-0.6,0.6c0,0.6,0,1.3,0,1.9c0,0.2,0,0.3-0.2,0.4c-0.2-0.1-0.4-0.3-0.7-0.4
			c-2.8-2-6.2-3.3-9.6-3.6h-1.9c-1.9,0.1-3.8,0.4-5.5,1C10.8,2.1,8,4,5.8,6.4C3.1,9,1.2,12.5,0.4,16.3c-0.2,1.1-0.4,2.2-0.4,3.4v2.3
			c0.1,2.6,0.7,5.1,1.7,7.4c1.7,3.7,4.5,6.8,7.9,9.1c3.2,2.1,7.1,3.2,11,3.1c3.9,0,7.6-1.4,10.6-3.8c0.2-0.1,0.5-0.4,0.6-0.1
			c0.1,0.7,0,1.5,0,2.2c0,0.3,0.3,0.7,0.6,0.6c2.4,0,4.9,0,7.3,0c0.4,0,0.7-0.4,0.6-0.7c0-2.2,0-4.3,0-6.5c0.7,1.5,1.7,3,2.9,4.1
			c2.1,2,4.9,3.1,7.7,3.7c2.3,0.5,4.7,0.5,7.1,0.4c2.5-0.1,5-0.5,7.4-1.3c1.9-0.6,3.7-1.6,5.2-3c1.4-1.3,2.4-3,2.9-4.9
			c0.6,0.9,1.3,1.8,2.1,2.6c2.8,3,6.4,5.2,10.4,6.1c4.5,1,9.4,0.7,13.6-1.4c3.9-1.9,7.2-5,9.4-8.8c0.6,2.3,1.6,4.5,3.3,6.2
			c1.4,1.5,3.2,2.6,5.1,3.3c3.3,1.2,6.8,1.4,10.3,1.3c2.9-0.1,5.7-0.6,8.4-1.7c2-0.8,4-2.1,5.3-3.9c1.2-1.5,1.8-3.4,1.9-5.4v-1.8
			C143.1,26.1,142,23.6,140.1,21.7z M29.9,28.6c-1.1,2-2.9,3.5-5,4.4c-2.7,1.1-5.8,1.2-8.5,0.2c-2.4-0.9-4.4-2.6-5.7-4.8
			c-1.6-2.7-2-5.8-1.8-8.9c0.3-3.1,1.4-6.2,3.6-8.4c1.6-1.6,3.6-2.7,5.9-3.1c2.5-0.4,5.1-0.1,7.4,1c2,1,3.6,2.6,4.5,4.6
			c1,2.1,1.3,4.5,1.4,6.8C31.7,23.2,31.3,26.1,29.9,28.6z M63.6,32c-0.6,1-1.6,1.8-2.6,2.2c-1.3,0.6-2.8,0.7-4.2,0.6
			c-2.1-0.1-4.4-0.6-6-2.1c-1.2-1.1-2-2.7-2.2-4.3c0-0.3-0.2-0.7-0.6-0.6c-2.5-0.1-5,0-7.5-0.1c0-4.3,0-8.6,0-12.9
			c0.3,0.8,0.6,1.7,1.1,2.4c0.9,1.4,2.3,2.5,3.9,3.3c2.8,1.5,6,2.1,9.1,2.8c2.4,0.5,4.8,1,6.9,2c1.3,0.6,2.5,1.6,2.8,3
			C64.4,29.6,64.2,30.9,63.6,32z M70.2,21.3c-1.9-1.7-4.2-2.8-6.5-3.6c-2.5-0.8-5.2-1.2-7.7-1.9c-1.4-0.4-2.7-0.8-3.9-1.5
			c-0.9-0.5-1.7-1.3-2-2.3c-0.4-1.2-0.3-2.6,0.4-3.6c0.6-0.9,1.6-1.5,2.7-1.8c1.4-0.4,2.9-0.4,4.4-0.3c1.5,0.2,3,0.8,4.1,1.9
			c1,0.9,1.6,2.2,1.8,3.5c0,0.3,0.3,0.7,0.7,0.7c2.6,0,5.2,0.1,7.8,0.1C70.7,15.3,70.1,18.3,70.2,21.3z M100.6,28.3
			c-1,1.9-2.6,3.4-4.5,4.4c-2.2,1.1-4.8,1.4-7.2,1c-2-0.3-3.9-1.2-5.4-2.6c-1.5-1.3-2.6-3.2-3.2-5.1c-0.8-2.4-0.9-4.9-0.6-7.4
			c0.3-2.7,1.3-5.5,3.3-7.4c1.7-1.8,4.1-3,6.6-3.3c2.1-0.2,4.3,0.1,6.3,1c2.1,1,3.8,2.7,4.9,4.7c1.1,2.1,1.6,4.4,1.7,6.7
			C102.4,23.1,101.9,25.9,100.6,28.3z M132,33.3c-1.2,1-2.7,1.5-4.2,1.6c-2.1,0.1-4.2-0.1-6.1-1c-1.5-0.8-2.7-2.2-3.3-3.8
			c-0.3-0.6-0.3-1.3-0.5-1.9c-0.2-0.4-0.8-0.3-1.2-0.3c-2.1,0-4.2-0.1-6.2-0.1c1.1-3.2,1.3-6.7,0.9-10c1.4,1.9,3.6,3,5.7,3.8
			c3.6,1.4,7.5,1.7,11.2,2.8c1.4,0.4,2.8,1,4,1.9c0.8,0.6,1.4,1.5,1.5,2.5C133.9,30.3,133.4,32.1,132,33.3z"/>
	</g>
</g>
<g id="Guides">
</g>
</svg>
