<?xml version="1.0" encoding="utf-8"?>
<!-- Generator: Adobe Illustrator 19.2.1, SVG Export Plug-In . SVG Version: 6.00 Build 0)  -->
<svg version="1.1" id="Layer_1" xmlns="http://www.w3.org/2000/svg" xmlns:xlink="http://www.w3.org/1999/xlink" x="0px" y="0px"
	 viewBox="0 0 300 80.6" style="enable-background:new 0 0 300 80.6;" xml:space="preserve">
<g>
	<g>
		<path d="M286.5,48.6v30.4h-14.7l0-30.4c0-8.2-3.2-13.2-11.2-13.2c-8,0-11.2,4.9-11.2,13.2v30.4h-14.7V48.6
			c0-17,8.7-26.7,25.9-26.7C277.9,21.9,286.5,31.5,286.5,48.6z M58.6,51.3c0,17.3-12,29.3-29.3,29.3C12.1,80.6,0,68.5,0,51.1V2.8
			h14.7v26.8c3.6-3.9,9.4-7.6,17.5-7.6C48,22,58.6,33.8,58.6,51.3z M44,51.3c0-9-6.3-15.8-14.6-15.8s-14.6,6.8-14.6,15.8
			c0,9,6.3,15.8,14.6,15.8S44,60.3,44,51.3z M121.1,52.4c0,1.3-0.1,3.1-0.2,4.4H79.2c0.8,7,7.1,11.5,15,11.5
			c5.8,0,10.6-1.7,14.6-5.2l7.5,10.2c-4.3,3.4-11.5,7.4-22.1,7.4c-17.8,0-29.8-11.6-29.8-28.9c0-17,12.5-29.8,29-29.8
			C110.7,22,121.1,33.4,121.1,52.4z M106.2,46.3c-1-6.8-5.4-12.2-13.5-12.2c-7.9,0-12.5,5.4-13.6,12.2H106.2z M128.8,79.1h14.7V2.8
			h-14.7V79.1z M204.9,23.9H188l-19.8,24.4V2.8h-14.7v76.4h14.7V52.7L188,79.1h17.9l-22.8-29.8L204.9,23.9z M211.4,79.1h14.7V23.9
			h-14.7V79.1z"/>
		<path d="M218.8,0c-4.7,0-8.5,3.8-8.5,8.5c0,4.7,3.8,8.5,8.5,8.5c4.7,0,8.5-3.8,8.5-8.5C227.3,3.8,223.5,0,218.8,0z"/>
		<path d="M218.8,0c-4.7,0-8.5,3.8-8.5,8.5c0,4.7,3.8,8.5,8.5,8.5c4.7,0,8.5-3.8,8.5-8.5C227.3,3.8,223.5,0,218.8,0z"/>
		<path d="M294.6,75.2h-1.4v3.8h-0.8v-3.8H291v-0.7h3.6L294.6,75.2L294.6,75.2z M300,74.6h-0.9l-1.6,3.4h0l-1.5-3.4h-0.9v4.5h0.7
			v-3.2h0l1.4,3.2h0.4l1.5-3.2h0v3.2h0.7V74.6z"/>
	</g>
</g>
</svg>
