<?xml version="1.0" encoding="utf-8"?>
<!-- Generator: Adobe Illustrator 19.2.1, SVG Export Plug-In . SVG Version: 6.00 Build 0)  -->
<svg version="1.1" id="svg2532" xmlns:svg="http://www.w3.org/2000/svg"
	 xmlns="http://www.w3.org/2000/svg" xmlns:xlink="http://www.w3.org/1999/xlink" x="0px" y="0px" viewBox="0 0 601.6 128.8"
	 style="enable-background:new 0 0 601.6 128.8;" xml:space="preserve">
<g id="layer1" transform="translate(200.318,-412.04418)">
	<path id="path99" d="M290.7,431c-12.8,12.5-19.1,27.8-19.1,45.6c0,35.9,29,64.3,64.8,64.3c35.9,0,64.8-28.2,64.8-64.3
		c0-17.7-6.4-32.7-18.9-45.5c-12.6-12.8-28-19.1-45.9-19.1C318.7,412,303.4,418.4,290.7,431z M215.8,480.7h43.7v-19.6h-43.7v-27.3
		h47.5v-19.7h-68v124.8h68.1v-19.7h-47.7V480.7z M-63.9,414.1h-20.5v124.8h20.5V414.1z M-173.9,538.9c22.9,0,40.6-5.1,52.4-15.8
		c13.5-12.1,20.4-27.6,20.4-46.5c0-19.7-7-35.6-20.9-47.4c-11.7-10-29.1-15.1-51.7-15.1h-26.7v124.8H-173.9z M28.2,511.6l11.5,27.3
		h22.7L9.1,413.7H-1.2l-54.6,125.2h22.5l12-27.8c0.3-0.8,0.4-1.3,0.5-1.8c0.5,0.3,1.3,0.5,2.2,0.9c6.7,2.6,14.7,4,22.5,4
		c7.7,0,15.3-1.5,19.8-3.1c2.3-0.8,3.1-1.2,3.7-1.5C27.7,510.1,28.1,511.2,28.2,511.6z M160.2,452.2l15.6-13.4
		c-13.4-17.9-31.3-26.8-52.4-26.8c-35.9,0-64.9,28.7-64.9,64.7c0,35.2,28.9,64.2,64,64.2c8.9,0,17.4-1.9,25.6-5.7
		c8-3.6,14.9-8.6,20.6-15.2c5.4-6.1,8.9-13,10.9-20.6c1.7-6.3,2.7-14,2.2-23.3l-0.3-3.7h-56.2V492H160c-0.9,7.7-4.9,14.4-11.9,20
		c-7.6,6.2-16.2,9.1-25.9,9.1c-11.2,0-21.3-4.6-30.5-13.8c-8.4-8.5-12.6-18.7-12.6-30.5c0-12.5,4.4-23.3,13.4-32.3
		c8.5-8.6,18.8-12.8,30.7-12.8C138.4,431.8,150.3,438.7,160.2,452.2z M367.8,444.8c8.8,8.5,13,19.2,13,31.7c0,12.4-4.4,22.9-13,31.7
		c-8.6,8.6-19.1,13-31.3,13c-24.6,0-44.2-20.2-44.2-44.7c0-12.4,4.4-23.1,13-31.8c8.5-8.6,19.1-12.9,31.2-12.9
		C348.6,431.8,359,436.1,367.8,444.8z M-173.3,433.8c17.5,0,29.9,3.6,37.6,10.4c9.3,8.1,13.9,18.8,13.9,32.2
		c0,12.8-4.5,23.3-13.4,31.6c-7.7,7.3-20.4,11.2-38.1,11.2h-5.7v-85.4H-173.3z M-13.4,491.9c0.4-0.8,1-2.1,1.3-2.7l15.7-38.1
		l15.5,38.5c0.3,0.6,0.8,1.7,1.2,2.6l-1.9,0.4c-4.4,1.2-9.3,1.9-14.3,1.9s-9.7-0.6-14.6-1.9C-11.5,492.3-12.8,491.9-13.4,491.9"/>
</g>
</svg>
