<?xml version="1.0" encoding="utf-8"?>
<!-- Generator: Adobe Illustrator 19.2.1, SVG Export Plug-In . SVG Version: 6.00 Build 0)  -->
<svg version="1.1"
	 id="Layer_1" xmlns:cc="http://creativecommons.org/ns#" xmlns:dc="http://purl.org/dc/elements/1.1/" xmlns:rdf="http://www.w3.org/1999/02/22-rdf-syntax-ns#" xmlns:svg="http://www.w3.org/2000/svg"
	 xmlns="http://www.w3.org/2000/svg" xmlns:xlink="http://www.w3.org/1999/xlink" x="0px" y="0px" viewBox="0 0 203 351.2"
	 style="enable-background:new 0 0 202 351.2;" xml:space="preserve">
<g transform="translate(-90.9,-691.13264)">
	<path d="M190.1,691.2C133.7,691.2,90,737,90,790.6c0,47.5,31,73,31,73c3.1,2.7,2.3,4.1,0.1,6.3c0,0-31.1,28.3-31.1,72
		c0,59.9,48,100.4,100.1,100.4c58.3,0,99.7-47.4,99.7-99.7c0-45-29.8-71.6-29.8-71.6c-4.2-4.1-4.2-4.7,0-8.4c0,0,29.8-25.1,29.8-72
		C289.8,737.6,247.2,691.2,190.1,691.2L190.1,691.2z M167.8,742.8c2.8,0,5.4,1.5,6.8,3.7c1.5-2.2,4-3.7,6.8-3.7
		c3.3,0,6.1,1.9,7.4,4.7c1.3-2.8,4.1-4.7,7.4-4.7c3.3,0,6.1,1.9,7.4,4.7c1.3-2.8,4.1-4.7,7.4-4.7c4.5,0,8.1,3.6,8.1,8.1
		s-3.6,8.1-8.1,8.1c-3.3,0-6.1-1.9-7.4-4.7c-1.3,2.8-4.1,4.7-7.4,4.7c-3.3,0-6.1-1.9-7.4-4.7c-1.3,2.8-4.1,4.7-7.4,4.7
		c-2.9,0-5.4-1.5-6.8-3.7c-0.6,0.9-1.3,1.7-2.2,2.2c2.1,1.5,3.5,3.9,3.5,6.7c0,2.8-1.4,5.2-3.5,6.7c2.1,1.5,3.5,3.9,3.5,6.7
		c0,2.8-1.4,5.2-3.5,6.7c0.6,0.5,1.2,1,1.7,1.6c1.5-1.9,3.8-3.1,6.4-3.1c3,0,5.6,1.6,7,4c1.4-2.4,4-4,7-4c2.9,0,5.5,1.6,7,3.9
		c1.4-2.3,4-3.9,7-3.9c4.5,0,8.1,3.6,8.1,8.1s-3.6,8.1-8.1,8.1c-2.9,0-5.5-1.6-7-3.9c-1.4,2.3-4,3.9-7,3.9c-3,0-5.6-1.6-7-4
		c-1.4,2.4-4,4-7,4c-2.6,0-4.9-1.2-6.4-3.1c-0.5,0.6-1.1,1.2-1.7,1.6c2.1,1.5,3.5,3.9,3.5,6.7s-1.4,5.2-3.5,6.7
		c2.1,1.5,3.5,3.9,3.5,6.7c0,2.8-1.4,5.2-3.5,6.7c0.9,0.6,1.6,1.3,2.2,2.2c1.5-2.2,4-3.7,6.8-3.7c3.3,0,6.1,1.9,7.4,4.7
		c1.3-2.8,4.1-4.7,7.4-4.7c3.3,0,6.1,1.9,7.4,4.7c1.3-2.8,4.1-4.7,7.4-4.7c4.5,0,8.1,3.6,8.1,8.1c0,4.5-3.6,8.1-8.1,8.1
		c-3.3,0-6.1-1.9-7.4-4.7c-1.3,2.8-4.1,4.7-7.4,4.7c-3.3,0-6.1-1.9-7.4-4.7c-1.3,2.8-4.1,4.7-7.4,4.7c-2.8,0-5.3-1.5-6.8-3.7
		c-1.5,2.2-4,3.7-6.8,3.7c-4.5,0-8.1-3.6-8.1-8.1c0-2.8,1.4-5.2,3.5-6.7c-2.1-1.5-3.5-3.9-3.5-6.7c0-2.8,1.4-5.2,3.5-6.7
		c-2.1-1.5-3.5-3.9-3.5-6.7c0-2.8,1.4-5.2,3.5-6.7c-2.1-1.5-3.5-3.9-3.5-6.7c0-2.8,1.4-5.2,3.5-6.7c-2.1-1.5-3.5-3.9-3.5-6.7
		c0-2.8,1.4-5.2,3.5-6.7c-2.1-1.5-3.5-3.9-3.5-6.7c0-2.8,1.4-5.2,3.5-6.7c-2.1-1.5-3.5-3.9-3.5-6.7
		C159.7,746.4,163.3,742.8,167.8,742.8L167.8,742.8z M167.8,894.3c2.8,0,5.4,1.5,6.8,3.7c1.5-2.2,4-3.7,6.8-3.7
		c3.3,0,6.1,1.9,7.4,4.7c1.3-2.8,4.1-4.7,7.4-4.7c3.3,0,6.1,1.9,7.4,4.7c1.3-2.8,4.1-4.7,7.4-4.7c4.5,0,8.1,3.6,8.1,8.1
		c0,4.5-3.6,8.1-8.1,8.1c-3.3,0-6.1-1.9-7.4-4.7c-1.3,2.8-4.1,4.7-7.4,4.7c-3.3,0-6.1-1.9-7.4-4.7c-1.3,2.8-4.1,4.7-7.4,4.7
		c-2.9,0-5.4-1.5-6.8-3.7c-0.6,0.9-1.3,1.7-2.2,2.2c2.1,1.5,3.5,3.9,3.5,6.7c0,2.8-1.4,5.2-3.5,6.7c2.1,1.5,3.5,3.9,3.5,6.7
		c0,2.8-1.4,5.2-3.5,6.7c0.6,0.5,1.2,1,1.7,1.6c1.5-1.9,3.8-3.1,6.4-3.1c3,0,5.6,1.6,7,4c1.4-2.4,4-4,7-4c2.9,0,5.5,1.6,7,3.9
		c1.4-2.3,4-3.9,7-3.9c4.5,0,8.1,3.6,8.1,8.1c0,4.5-3.6,8.1-8.1,8.1c-2.9,0-5.5-1.6-7-3.9c-1.4,2.3-4,3.9-7,3.9c-3,0-5.6-1.6-7-4
		c-1.4,2.4-4,4-7,4c-2.6,0-4.9-1.2-6.4-3.1c-0.5,0.6-1.1,1.2-1.7,1.6c2.1,1.5,3.5,3.9,3.5,6.7c0,2.8-1.4,5.2-3.5,6.7
		c2.1,1.5,3.5,3.9,3.5,6.7c0,2.8-1.4,5.2-3.5,6.7c0.9,0.6,1.6,1.4,2.2,2.2c1.5-2.2,4-3.7,6.8-3.7c3.3,0,6.1,1.9,7.4,4.7
		c1.3-2.8,4.1-4.7,7.4-4.7c3.3,0,6.1,1.9,7.4,4.7c1.3-2.8,4.1-4.7,7.4-4.7c4.5,0,8.1,3.6,8.1,8.1s-3.6,8.1-8.1,8.1
		c-3.3,0-6.1-1.9-7.4-4.7c-1.3,2.8-4.1,4.7-7.4,4.7c-3.3,0-6.1-1.9-7.4-4.7c-1.3,2.8-4.1,4.7-7.4,4.7c-2.8,0-5.3-1.5-6.8-3.7
		c-1.5,2.2-4,3.7-6.8,3.7c-4.5,0-8.1-3.6-8.1-8.1c0-2.8,1.4-5.2,3.5-6.7c-2.1-1.5-3.5-3.9-3.5-6.7c0-2.8,1.4-5.2,3.5-6.7
		c-2.1-1.5-3.5-3.9-3.5-6.7c0-2.8,1.4-5.2,3.5-6.7c-2.1-1.5-3.5-3.9-3.5-6.7c0-2.8,1.4-5.2,3.5-6.7c-2.1-1.5-3.5-3.9-3.5-6.7
		c0-2.8,1.4-5.2,3.5-6.7c-2.1-1.5-3.5-3.9-3.5-6.7c0-2.8,1.4-5.2,3.5-6.7c-2.1-1.5-3.5-3.9-3.5-6.7
		C159.7,898,163.3,894.3,167.8,894.3z"/>
</g>
</svg>
