<?xml version="1.0" encoding="utf-8"?>
<!-- Generator: Adobe Illustrator 19.2.1, SVG Export Plug-In . SVG Version: 6.00 Build 0)  -->
<svg version="1.1" id="Calque_3" xmlns="http://www.w3.org/2000/svg" xmlns:xlink="http://www.w3.org/1999/xlink" x="0px" y="0px"
	 viewBox="0 0 300 210.9" style="enable-background:new 0 0 300 210.9;" xml:space="preserve">
<g>
	<path d="M24.4,110.9h9.4v85.5c0,0,1.4,12.9-9.4,12.9s-9.6-17.7-9.6-19.5c0-1.8,0-174.9,0-174.9S15.4,0.2,23,0.2
		c7.4,0,17.1,20,20.4,58.5v6.6h3.8v-67h-3.8v5.6c-0.5,0.3-1.1,0.6-1.9,0.6c-1.6,0-8.2-8-17.9-8S0,1.4,0,21.3S0,181,0,181
		s-2.1,31.8,24.4,31.8c0,0,8,0.6,16.6-6.6c0,0,4.9-2.3,4.9,4.9h4.1V110.9h7.5v-3.8H24.4V110.9z"/>
	<path d="M155.4,0H142c0,0-20.5,196.6-20.5,198.9c0,2.1-1.4,7.4-8.1,8.2h-2.1v0.2c0,0-0.1,0-0.1,0h0.1v3.6h23.4v-3.8h-1.7
		c-3.2-0.2-7.4-2.3-7.4-8.6l7.7-74.2h19.8l8.9,82.8h-8.3v3.8h33.1v-3.8h-8.5L155.4,0z M133.7,119.9l9.5-89.1l9.6,89.1H133.7z"/>
	<path d="M273.1-0.1L240.2,0v3.8h8.2v203.6h-7.6v3.8h36v-3.8h-12V125h14.4c20.1,0,20.8-19,20.8-19s0-63.6,0-84.8
		C300,0,273.1-0.1,273.1-0.1z M284.4,108.7c0,11.6-8.6,11.7-8.6,11.7h-11V3.9c1.8,0,4.5,0,8.3,0c9.9,0,11.3,13.3,11.3,13.3
		S284.4,97.1,284.4,108.7z"/>
</g>
</svg>
