<?xml version="1.0" encoding="utf-8"?>
<!-- Generator: Adobe Illustrator 16.0.0, SVG Export Plug-In . SVG Version: 6.00 Build 0)  -->
<!DOCTYPE svg PUBLIC "-//W3C//DTD SVG 1.1 Basic//EN" "http://www.w3.org/Graphics/SVG/1.1/DTD/svg11-basic.dtd">
<svg version="1.1" baseProfile="basic" id="Layer_1"
	 xmlns="http://www.w3.org/2000/svg" xmlns:xlink="http://www.w3.org/1999/xlink" x="0px" y="0px"
	 viewBox="0 0 485 173.276" xml:space="preserve">
<g>
	<path d="M181.088,70.791c2.812-2.803,6.404-4.455,10.389-4.455c6.013,0,9.997,3.202,13.604,10.389
		c4.84-4.767,12.027-9.533,21.255-6.403c5.535,2.028,9.52,9.62,9.52,27.194c0,8.83-0.782,15.242-2.418,21.487
		c-1.174,2.897-1.957,3.281-8.361,3.281c-5.621,0-6.795-2.738-6.795-6.643c0-20.937,0.768-24.53-2.811-24.53
		c-6.332,0-1.956,16.401-9.926,18.039c-11.647,2.738-15.633-15.228-14.85-23.979c-3.97,1.955-3.043,12.655-1.565,25.55
		c0.942,7.97-1.637,11.562-7.577,12.425c-2.421,0.391-12.026-1.246-12.026-20.791c0-12.418,3.202-22.807,8.433-28.435
		c-1.317,1.876-2.42,3.818-2.811,5.237c1.565-2.434,3.058-4.614,4.839-6.49c2.579-2.731,4.304-3.681,7.115-4.68
		C185.928,67.988,183.739,68.763,181.088,70.791 M393.391,111.114c-0.782,0.383-0.782,1.644,1.158,4.454
		c-0.376-0.463-0.376,1.558,0.406,1.957c-0.782-0.399-3.216,3.594-10.401,3.594c-8.361,0-9.535-6.405-11.173-11.564h-10.401
		c-1.159,7.188-1.159,11.173-10.39,11.173c-6.796,0-8.359-3.985-8.359-9.23c0-10.388,4.767-34.381,13.996-42.734
		c4.36-3.983,22.341-5.31,23.746-0.631C384.711,77.195,388.61,102.355,393.391,111.114 M371.424,96.733
		c-1.636-5.622-2.418-11.171-3.199-16.792c-2.029,6.403-3.202,12.024-4.058,16.792H371.424z M111.542,68.763
		c-3.202-2.817-24.761-3.983-25.934-2.035c-2.819,4.456-10.78,32.034-10.78,44.387c0,9.221,4.759,10.395,7.961,10.395
		c6.013,0,9.222-0.781,10.787-15.944h9.621c1.941,10.396,3.579,16.72,10.388,16.72c5.998,0,5.998-10.787,3.593-31.563
		C116.787,86.345,114.744,71.574,111.542,68.763 M98.728,81.969c1.413,0,3.281,6.405,3.673,13.199h-8.042
		c0-2.026,2.108-10.388,3.275-12.967C97.713,81.969,98.024,81.969,98.728,81.969 M281.885,71.958
		c-0.781-2.811-1.637-3.195-3.593-3.97c-3.606-0.797-10.011-0.392-10.866,2.333c-2.347,3.6-1.421,43.452-0.941,47.898
		c0.158,2.658-0.232,3.681,16.966,3.681c12.417,0,17.966-2.738,19.212-9.143c1.566-8.048-0.854-8.839-4.448-8.839h-13.981
		C284.232,98.37,282.972,75.949,281.885,71.958 M35.201,73.146c-2.81-4.781-7.186-7.201-11.953-7.201
		c-13.981,0-19.611,21.182-19.611,37.974c0,12.041,1.645,17.59,5.238,17.59c8.751,0,10.78,0,11.172-0.39
		c4.766-1.174,0-31.579,6.404-31.579c1.564,0,2.738,3.991,3.209,8.367c1.165,6.803,3.585,13.207,9.533,13.207
		c6.324,0,6.803-1.56,7.658-8.368c1.165-8.432,1.955-15.619,3.983-15.619c2.812,0,3.977,13.59,3.977,16.409
		c0.791,9.606,0.791,17.973,5.166,17.973c7.65,0,9.997-5.549,10.852-10.395c1.173-11.563-0.855-25.942-3.202-32.745
		c-3.202-9.222-8.823-13.59-16.01-13.59C44.417,64.779,38.794,69.147,35.201,73.146 M241.478,111.114c0-7.578,0.796-22.74,0-37.968
		c0-1.188,1.579-4.781,9.229-4.781c4.374,0,7.969,0.782,7.969,3.593c2.434,19.625,2.434,46.733,1.564,47.987
		c-0.392,1.955-1.564,1.563-1.564,2.339c-0.378-0.384-2.029,0.862-2.029,1.253c-0.393-0.391-1.565,0-1.174,0
		c-0.781-0.391-3.593,0-4.375,0.392c0,0-1.247-0.392-2.043,0c0-0.782-2.404-1.645-2.404-0.782c-0.393-0.862-1.174-1.246-1.566-0.392
		C245.084,122.284,241.478,121.119,241.478,111.114 M416.195,103.151c7.984,11.156,14.778,16.395,23.834,16.395
		c5.868,0,12.504-7.179,12.504-28.435c0-23.123-3.594-25.558-10.012-25.558c-6.78,0-10.389,3.209-10.389,9.62
		c0,8.751,0.391,16.792-0.376,19.141c-1.174-0.783-4.392-4.774-11.577-17.59c-3.984-7.577-9.606-7.962-11.562-7.962
		c-11.953,0-11.259,31.18-11.259,38.75c0,10.315,3.275,13.909,9.216,13.909c4.332,0,6.65-0.564,8.041-1.087
		c1.405-0.521,1.333-0.832,1.333-2.527L416.195,103.151z M328.221,107.905c-3.217,0-4.376-0.393-4.376-5.941l-0.391-29.224
		c0-1.949-0.087-3.274-2.42-3.506c-3.058-0.312-13.127-0.312-13.981,0.231c-0.725,0.471-0.798,1.718-0.798,1.718
		c0,3.99-0.854,21.958-0.854,31.562c0.477,10.795,0.477,14.38,2.81,16.8c3.984,3.991,23.604,3.991,29.224,3.991
		c0.784,0,1.957,0,2.812-2.418c0.782-0.784,0.782-1.957,1.564-1.957c-0.782,0-0.391-2.811,0-2.811c-0.391,0-0.391-2.044-0.391-2.044
		c-0.783-0.391,1.564-6.402-6.796-6.402H328.221z M143.576,54.383c6.796,0,9.549-7.578,11.186-14.764h9.143
		c2.42,7.186,3.666,15.546,10.852,15.546c3.594,0,7.187-2.028,7.187-7.186c0-8.831-4.447-31.108-8.823-43.995
		c-0.782-1.558-1.956-1.949-3.202-1.949c-3.983-0.391-17.197-0.854-21.574,0.391c-1.565,0.783-2.028,0.783-2.81,2.348
		c-3.608,8.824-7.187,27.195-7.969,39.612c-0.391,7.186,0,9.997,4.767,9.997H143.576z M159.515,14.38
		c0.782,3.202,2.434,12.822,2.811,14.85h-5.998C156.703,27.97,158.746,18.364,159.515,14.38 M250.707,34.389
		c11.951,0,15.545-1.565,15.545-9.78c0-1.79-1.1-2.652-15.545-2.652v-6.331c14.228-0.073,19.921-1.246,19.921-6.013
		c0-5.629-2.347-8.823-13.59-8.823c-7.983,0-19.923,1.245-20.329,2.419c-0.854,2.028-2.81,13.206-2.81,23.993
		c0,18.357,4.376,29.137,24.008,29.137c9.982,0,12.721-1.956,12.721-7.187c0-5.94,0-6.403-1.551-6.403
		C254.691,42.749,250.707,41.952,250.707,34.389 M193.896,7.194c-10.39,12.025-7.969,36.018-7.172,42.813
		c0.768,2.738,2.796,5.158,9.215,5.158c4.752,0,6.389-0.391,6.389-2.028c0-1.174,0.405-1.564,0.405-13.989
		c5.158,6.02,15.156,15.235,22.096,15.235c2.203,0,6.26-6.795,6.26-10.388c0-2.811-5.623-7.586-13.199-13.214
		c8.445-4.296,11.561-9.215,11.561-15.155C229.45,7.976,223.119,0,211.471,0C203.894,0,198.271,2.426,193.896,7.194 M203.894,25.55
		c1.65-7.186,3.998-13.126,8.374-13.126c3.202,0,4.447,1.956,4.447,3.593C216.715,21.175,209.529,23.986,203.894,25.55
		 M102.792,35.164c12.75,0,12.75-4.767,12.75-8.759c0-3.194-1.956-4.448-7.201-4.448c-3.202,0-6.795,0.471-8.751,0.862v-3.6
		c0-3.202,0.391-3.593,2.419-3.593h5.159c7.577,0,10.779-4.448,10.779-8.831c0-3.977-9.997-5.151-22.414-5.151
		c-5.158,0-7.114,0.782-8.36,2.652c-2.818,3.911-4.766,17.661-4.766,44.074c0,2.028,6.012,7.577,23.602,7.577
		c5.143,0,13.575-1.955,13.575-7.968c0-5.622-11.634-8.831-19.603-6.027v-6.788H102.792z M29.189,54.774
		c9.605,0,12.807-10.779,14.061-18.365c0.398-1.245,0.789-5.237,1.564-5.237c1.558,0,4.384,25.558,12.033,25.558
		c22.342,0,22.342-38.366,22.342-46.334c0-7.578-3.579-10.005-7.57-10.005c-4.847,0-9.613,2.035-9.613,8.439
		c0,10.389-0.783,27.971-2.42,27.971c-1.956,0-1.174-30.781-12.735-30.781c-7.658,0-10.005,9.606-12.034,19.139
		c-0.782,3.202-1.18,8.447-2.817,8.447c-3.202,0-2.34-20.4-2.34-25.63c0-1.956-0.862-5.55-6.412-5.55H18.01
		c-3.194,0-4.375,1.174-4.375,7.578v13.207C13.635,47.979,22.857,54.774,29.189,54.774 M150.748,108.614
		c-7.331,0-12.387-4.129-12.387-10.779c0-7.795,5.506-9.867,12.851-9.867c9.854,0,14.909-0.681,14.909-5.723
		c0-6.658-7.128-13.779-20.198-13.779c-13.749,0-24.311,11.707-24.311,26.384c0,22.943,14.677,29.587,26.832,29.587
		c10.099,0,19.053-4.347,19.053-13.07c0-1.375-0.464-2.984-1.158-3.44c-1.362-1.15-3.201-0.92-5.954-0.457
		C157.631,107.926,155.56,108.614,150.748,108.614 M482.221,103.587c0,4.172,0,13.271-2.854,16.496
		c-2.826,3.223-12.127,0.383-15.155-2.471c-3.027-2.847-2.088-9.664-2.088-15.17c0-5.498,9.101-3.601,11.751-3.601
		C476.54,98.842,482.221,99.413,482.221,103.587 M415.892,144.902c0.999,2.434,0.999,23.645-0.595,23.311
		c-0.174,0.42-1.261,0.674-1.261,1.087c-0.245-0.58-0.579-0.158-0.826,0.175c0.073-0.421-1.274,0.087-1.434,0.578
		c-0.174-0.246-1.014,0-1.014,0.175c-0.246-0.507-1.753-0.666-2.247-0.334c0.072-0.245-0.521-0.419-0.854-0.173
		c0.087-0.335-0.595-0.579-0.928-0.579c0-0.334-0.667-1.009-0.667-1.603v-6.447c0-5.541,1.087-11.235,1.087-15.351
		c0-0.167,0-0.839-0.826-0.839h-1.347c-3.188,0-9.39,0-9.39-4.362c0-0.754,0.16-4.115,0.668-4.527
		c2.521-1.841,19.37-1.508,19.545-1.508c2.681,0,7.548-0.333,10.055,1.508c0.507,0.412,0.667,3.773,0.667,4.527
		c0,4.362-6.115,4.362-9.301,4.362H415.892z M375.047,146.835c0.508,0.08,9.39,2.269,9.39-2.02c0-3.942-9.39-2.683-9.39,1.426
		V146.835z M394.086,144.4c0,10.903-10.316,9.31-10.981,9.396c2.419,2.753,6.62,8.882,10.981,12.489
		c1.666,1.42-0.174,6.041-8.389,3.188c-4.362-1.508-10.317-13.924-10.562-15.012v14.084c0,1.347-1.262,2.181-3.029,2.181
		c-4.448,0-7.953-4.941-7.953-14.003c0-4.941,0.158-12.743,2.68-16.432c2.68-3.939,8.46-5.621,15.011-5.454
		C390.059,135.085,394.086,139.119,394.086,144.4 M339.318,150.942c0,2.594,0.507,9.896,6.883,9.896
		c5.273,0,6.954-5.036,6.954-8.723c0-5.447-0.841-11.576-6.447-11.576C341.595,140.714,339.318,144.062,339.318,150.942
		 M347.375,132.658c10.649,0,14.241,10.569,14.241,20.037c0,11.752-8.795,17.198-16.169,17.198
		c-11.069,0-13.909-10.402-13.909-18.704C331.538,137.773,336.986,132.658,347.375,132.658 M299.504,159.158
		c0-17.531,7.78-23.986,18.531-23.986c6.694,0,12.228,4.281,12.228,11.156c0,5.455-3.1,9.975-9.722,9.975
		c-3.694,0-7.635-1.593-7.635-4.1c0-1.507,1.26-2.941,3.028-3.274c3.434-0.667,5.113-0.254,5.113-2.854
		c0-1.508-3.013-4.529-8.635,1.087c-0.348-0.087,3.348-3.101,3.015-3.101c-0.334-0.08-2.102,1.173-2.261,1.173
		c-0.103,0,0.927-0.834,0.42-0.834c-0.42,0-3.868,2.095-3.868,12.41v8.976c0,4.616-1.999,4.616-4.362,4.616
		c-5.114,0-5.853-3.363-5.853-5.21V159.158z M280.871,150.017c6.201,0,8.896-1.342,8.896-5.781c0-3.769-5.042-3.769-8.896-3.769
		V150.017z M280.871,132.571c12.417,0,17.357,5.535,17.357,10.982c0,10.576-7.2,15.271-16.518,15.271c-0.753,0-0.84,0.587-0.84,1
		v3.942c0,2.18-0.754,5.2-4.854,5.2c-3.695,0-4.202-2.015-4.202-5.2v-4.275C272.409,141.12,270.396,132.571,280.871,132.571
		 M258.152,137.773c0.16-2.174,1.667-2.688,3.014-3.021c1.436-0.421,4.289-0.16,5.027,1.673c0.928,2.269,0.928,7.724,0.928,13.504
		c0,11.403-1.84,19.878-15.098,19.878c-5.868,0-11.648-1.514-15.096-8.301c-2.681-5.87-2.42-19.198-1.999-24.153
		c0.158-1.753,0.666-2.601,1.999-3.021c1.26-0.333,7.982-0.912,8.055,3.275c0.087,2.514-0.578,10.229,0.928,15.85
		c1.103,4.021,3.608,6.716,7.215,6.716C259.066,160.172,258.065,138.613,258.152,137.773 M223.352,133.331
		c4.693,0,7.882,2.935,7.882,7.209c0,2.093-0.841,3.521-1.84,3.521c-3.115,0-9.229-2.016-9.229,0.681
		c0,3.846,11.837,7.461,11.837,16.263c0,6.621-4.114,11.396-11.084,11.396c-7.968,0-11.91-4.107-10.895-5.622
		c0.493-0.745,2.506-3.259,1.332-4.767c0.768,0.746,1.348-0.087,1.174-0.506c0.522-0.087,1.101-0.501,0.681-1.508
		c0.247-0.174,3.261,3.102,6.201,3.102c1.667,0,2.347-0.842,2.347-2.095c0-4.107-11.995-6.121-11.995-16.438
		C209.762,138.693,215.049,133.331,223.352,133.331 M176.061,148.422c2.767,0,2.347,2.188,5.273,2.188
		c1.436,0,3.188-1.681,3.188-3.861c0-2.426-2.016-3.687-4.349-3.687c-5.532,0-6.548,6.288-6.056,5.867
		C174.467,148.675,175.466,148.422,176.061,148.422 M194.1,167.126c0,2.016-2.188,3.354-4.956,3.354
		c-2.941,0-3.361-0.428-4.027-3.86c-0.594-2.682-3.521-6.122-4.622-6.122c-3.854-0.761-3.348-1.841-3.68-1.919
		c-0.334-0.261-0.247,0.492-0.247,0.832c-0.347-0.919-1.014-0.919-1.014-0.253c-0.333-0.92-0.682-1.007-0.755-0.84
		c-0.07,0.261-0.507-0.58-0.594-1.007c-0.087-0.327-0.419,0.84-0.419,1.673v8.142c0,3.188-2.087,3.769-3.607,3.769
		c-4.015,0-4.015-3.269-4.015-5.868v-9.723c0-11.489,1.682-21.306,15.432-20.632c0.158,0-0.682-0.341-0.333-0.341
		c0.404,0,2.854,0.508,2.68,0.421c-2.68-1.333-6.375-0.58-6.216-0.58c8.982-1.76,16.373,3.435,16.373,10.815
		c0,4.941-3.695,8.976-7.391,9.476C190.563,157.564,194.1,162.012,194.1,167.126 M159.63,136.266c1.579,0,3.854,0,3.854,2.521
		c0,2.507-0.26,5.027-6.375,5.027h-6.042c-2.347,0-2.173,0.753-2.1,5.869h5.794c0.928,0,6.114,0,6.114,3.012
		c0,1.595,0,5.043-4.013,5.043h-7.896v4.868h5.288c5.708,0,8.303,1.586,8.303,3.934c0,3.601-6.622,4.354-10.157,4.354
		c-6.273,0-13.156-1.753-13.156-5.361c0-2.181-0.42-29.268,3.855-29.268H159.63z M129.175,161.332c5.709,0,8.056,1.68,8.056,3.694
		c0,3.86-2.681,5.534-6.55,5.534c-10.634,0-19.11-5.781-19.11-17.604c0-3.36,1.767-11.489,8.476-15.096
		c5.622-3.021,11.562-2.602,13.242-2.602c2.681,0,3.521,1.166,3.521,2.602c0,2.013-0.84,5.534-6.621,5.534
		c-4.868,0-7.128,1.421-7.128,12.321C123.062,161.678,125.408,161.332,129.175,161.332 M80.304,136.101
		c1.913,0,4.593,0.832,6.274,3.859c1.173,1.999,7.469,13.663,9.483,13.663c1.253,0,0.92-7.708,0.92-14.011
		c0-3.512,1.521-5.44,6.129-5.44c4.346,0,5.607,1.428,5.607,3.354v4.188c-0.16,18.784-3.681,26.673-8.635,26.673
		c-5.115,0-9.897-4.026-15.764-12.836v9.896c0,4.028-2.767,4.115-4.361,4.115c-2.434,0-6.288-0.35-6.288-6.042
		c0-5.281-0.246-20.966,1.173-24.4c0.174-0.426,0.507,0.587,0.667,0.16c0.174-0.405,0.594,0.174,0.594,0
		C76.349,137.946,77.856,136.101,80.304,136.101 M52.038,154.884l6.041-0.174l-2.782-11.315L52.038,154.884z M48.762,136.512
		c0.595-0.912,1.174-0.912,1.768-0.912c2.348,0.159,7.462,0.246,8.636,0.501c0.507,0.077,1.506,0.165,1.84,1.165
		c0.42,0.928,8.642,25.341,8.968,26.254c0.348,0.841,0.754,1.507,1.015,1.673c0.087,0.254-0.587-0.413-0.508,0
		c0.087,0.507,0.84,1.008,1.007,1.261c0.167,0.254-0.326-0.253-0.499,0c-0.508,0.325,0.332,2.007,0.839,2.514
		c-0.42,1.086-5.288,2.594-8.142,1.761c-2.68-0.834-3.014-4.021-4.354-7.795H51.11l-1.087,4.02
		c-0.927,2.941-3.608,3.528-6.287,3.528c-3.275,0-4.876-2.188-4.449-6.375C39.62,159.665,45.996,140.794,48.762,136.512
		 M36.607,159.998c-0.507,0.42,0,0.754,0.333,0.754c-1,0,0.92,2.093-0.333,5.194c-1.348,3.195-5.368,4.281-9.389,4.281
		c-10.99,0-18.531-5.867-18.531-17.61c0-7.043,3.688-14.257,11.91-16.771c6.027-1.848,11.822-0.761,13.829,1.174
		c2.181,2.1,2.181,6.709-0.92,7.303c-8.468,0-12.909,1.419-12.909,8.547C20.597,162.933,32.839,159.331,36.607,159.998"/>
</g>
</svg>
