<?xml version="1.0" encoding="utf-8"?>
<!-- Generator: Adobe Illustrator 19.2.1, SVG Export Plug-In . SVG Version: 6.00 Build 0)  -->
<svg version="1.1" id="Layer_1" xmlns="http://www.w3.org/2000/svg" xmlns:xlink="http://www.w3.org/1999/xlink" x="0px" y="0px"
	 viewBox="0 0 54.5 23.1" xml:space="preserve">
<g>
	<path d="M-0.1,6.7c0-0.2,0-0.4,0.1-0.4c0.2,0,0.2,0.1,0.2,0.4c0.1,0.6,0.9,1.9,2.6,1.9c1.2,0,2.3-0.7,2.3-2
		c0-2.4-5-1.1-5-4.3C0.1,0.8,1.5,0,2.9,0C4.4,0,4.8,0.4,5,0.4c0.1,0,0.1-0.1,0.3-0.1c0.1,0,0.1,0,0.1,0.2l0.2,1.7
		c0,0.1,0,0.2-0.1,0.2C5.3,2.4,5.2,2.1,5.2,2C4.8,0.9,3.9,0.4,2.8,0.4c-1,0-2,0.5-2,1.6c0,2.3,5,1,5,4.4c0,1-0.7,2.6-3.5,2.6
		c-0.9,0-2-0.5-2.1-0.7L-0.1,6.7L-0.1,6.7z"/>
	<path d="M10.8,2.4c0.1-0.1,0.1-0.1,0.2,0l1.2,2.7c0.1,0.1,0.1,0.2-0.2,0.2H9.6c-0.2,0-0.2,0-0.2-0.2L10.8,2.4L10.8,2.4
		z M13.2,7.1c0.1,0.3,0.4,0.8,0.4,1.1c0,0.4-0.7,0.3-0.7,0.6c0,0.1,0.2,0.1,0.3,0.1c0.3,0,0.7,0,1,0c0.5,0,1,0,1.5,0
		c0.1,0,0.2,0,0.2-0.1c0-0.3-0.7,0-1.1-0.5c-0.3-0.4-0.4-0.9-0.6-1.3l-2.6-5.7c0-0.1-0.1-0.4-0.3-0.4c-0.2,0-0.2,0.2-0.9,1.6l-3,5.7
		C7,8.7,6.5,8.5,6.5,8.8c0,0.1,0,0.1,0.1,0.1c0.3,0,0.7,0,1,0c0.3,0,0.7,0,1,0c0.2,0,0.3,0,0.3-0.2c0-0.3-0.9,0-0.9-0.7
		c0-0.1,0.1-0.3,0.1-0.4L8.9,6c0.1-0.2,0.3-0.2,0.6-0.2h2.7c0.3,0,0.4,0.2,0.5,0.4L13.2,7.1L13.2,7.1z"/>
	<path d="M20.5,2.4c0.1-0.1,0.1-0.1,0.2,0l1.2,2.7C22,5.2,22,5.3,21.7,5.3h-2.5c-0.2,0-0.2,0-0.2-0.2L20.5,2.4L20.5,2.4
		z M22.8,7.1C23,7.4,23.2,8,23.2,8.2c0,0.4-0.7,0.3-0.7,0.6c0,0.1,0.2,0.1,0.3,0.1c0.3,0,0.7,0,1,0c0.5,0,1,0,1.5,0
		c0.1,0,0.2,0,0.2-0.1c0-0.3-0.7,0-1.1-0.5c-0.3-0.4-0.4-0.9-0.6-1.3l-2.6-5.7c0-0.1-0.1-0.4-0.3-0.4c-0.2,0-0.2,0.2-0.9,1.6l-3,5.7
		c-0.3,0.6-0.9,0.4-0.9,0.7c0,0.1,0,0.1,0.1,0.1c0.3,0,0.7,0,1,0c0.3,0,0.7,0,1,0c0.2,0,0.3,0,0.3-0.2c0-0.3-0.9,0-0.9-0.7
		c0-0.1,0-0.3,0.1-0.4L18.6,6c0.1-0.2,0.3-0.2,0.6-0.2h2.7c0.3,0,0.4,0.2,0.5,0.4L22.8,7.1L22.8,7.1z"/>
	<path d="M27.9,2.1c0-0.1,0-0.5-0.1-0.5h-2c-0.8,0-0.8,0.2-1,0.8c0,0.1,0,0.3-0.2,0.3c-0.1,0-0.1-0.1-0.1-0.1l0.1-1.1
		c0-0.1,0-0.4,0.2-0.4c1,0,1.9,0,3.5,0c2.3,0,3.4,0,3.6,0c0.3,0,0.3,0.1,0.4,0.3l0.1,0.9c0,0.1,0,0.2-0.1,0.2
		c-0.5,0,0.2-0.8-1.1-0.8h-1.8c-0.6,0-0.5,0-0.5,0.5v5.7c0,0.9,1,0.6,1,0.9c0,0,0,0.1-0.1,0.1c-0.3,0-0.6,0-1,0c-1.4,0-1.6,0-1.7,0
		c-0.1,0-0.1,0-0.1-0.1c0-0.3,1-0.2,1-0.8V2.1L27.9,2.1z"/>
	<path d="M37.3,0.9c2.3,0,3,0.9,3.3,0.9c0.1,0,0.2-0.1,0.3-0.1c0.1,0,0.1,0.2,0.2,0.9c0,0.6,0.1,1-0.1,1
		c-0.1,0-0.2-0.3-0.3-0.4c-0.8-1.2-1.6-1.9-3.2-1.9c-2.4,0-3.6,1.5-3.6,3.5c0,1.9,1.2,3.9,3.6,3.9c1.9,0,3.2-1.1,3.3-1.6
		c0-0.1,0.1-0.1,0.2-0.1c0.1,0,0.1,0.1,0.1,0.1l-0.3,1.1c0,0-0.9,0.9-3.7,0.9c-2.5,0-4.4-1.6-4.4-3.9C32.8,2.8,34.7,0.9,37.3,0.9
		L37.3,0.9z"/>
	<path d="M42.9,1.9c0-0.8-1.1-0.6-1.1-0.8C41.8,1,41.9,1,42,1c0.5,0,0.9,0,1.4,0c0.4,0,0.8,0,1.2,0
		c0.2,0,0.2,0.1,0.2,0.1c0,0.2-0.9,0-0.9,0.8v2.4c0,0.2,0,0.2,0.2,0.2h4.5c0.1,0,0.1-0.3,0.1-0.3V1.9c0-0.8-0.9-0.6-0.9-0.8
		c0-0.1,0-0.1,0.2-0.1c0.4,0,1.1,0,1.3,0c0.5,0,0.6,0,0.9,0c0.3,0,0.3,0.1,0.3,0.2c0,0.2-0.8,0-0.8,0.8v5.9c0,0.8,1.1,0.6,1.1,0.9
		c0,0,0,0.1-0.1,0.1c-0.3,0-0.7,0-1.2,0c-0.8,0-1.1,0-1.4,0c-0.1,0-0.3,0-0.3-0.1c0-0.3,0.9-0.1,0.9-0.8V5.2c0-0.2,0-0.3-0.1-0.3H44
		c-0.1,0-0.1,0.1-0.1,0.2v2.8c0,0.8,1.2,0.5,1.2,0.9c0,0.1-0.1,0.1-0.2,0.1c-0.2,0-1.1,0-1.7,0c-0.9,0-1,0-1.1,0
		c-0.1,0-0.1-0.1-0.1-0.2c0-0.3,1,0,1-1.1V1.9L42.9,1.9z"/>
	<path d="M52.6,1.9c0-0.8-1-0.6-1-0.8c0-0.1,0-0.1,0.1-0.1c0.5,0,0.9,0,1.4,0c0.4,0,0.8,0,1.2,0c0.2,0,0.2,0,0.2,0.1
		c0,0.3-0.9,0-0.9,0.8v6c0,0.8,1.1,0.5,1.1,0.8c0,0.1,0,0.1-0.2,0.1c-0.3,0-0.8,0-1.4,0c-0.8,0-1,0-1.2,0c-0.2,0-0.3-0.1-0.3-0.2
		c0-0.3,1,0,1-1.1V1.9L52.6,1.9z"/>
	<path d="M-0.1,20.9c0-0.2,0-0.4,0.1-0.4c0.2,0,0.2,0.1,0.2,0.4c0.1,0.6,0.9,1.9,2.6,1.9c1.2,0,2.3-0.7,2.3-2
		c0-2.4-5-1.1-5-4.3c0-1.6,1.3-2.3,2.8-2.3c1.5,0,1.9,0.4,2.1,0.4c0.1,0,0.1-0.1,0.3-0.1c0.1,0,0.1,0,0.1,0.2l0.2,1.7
		c0,0.1,0,0.2-0.1,0.2c-0.1,0-0.2-0.3-0.3-0.4c-0.4-1.1-1.3-1.6-2.4-1.6c-1,0-2,0.5-2,1.6c0,2.3,5,1,5,4.4c0,1-0.7,2.6-3.5,2.6
		c-0.9,0-2-0.5-2.1-0.7L-0.1,20.9L-0.1,20.9z"/>
	<path d="M10.8,16.6c0.1-0.1,0.1-0.1,0.2,0l1.2,2.7c0.1,0.1,0.1,0.2-0.2,0.2H9.6c-0.2,0-0.2,0-0.2-0.2L10.8,16.6
		L10.8,16.6z M13.2,21.4c0.1,0.3,0.4,0.8,0.4,1.1c0,0.4-0.7,0.3-0.7,0.6c0,0.1,0.2,0.1,0.3,0.1c0.3,0,0.7,0,1,0c0.5,0,1,0,1.5,0
		c0.1,0,0.2,0,0.2-0.1c0-0.3-0.7,0-1.1-0.5c-0.3-0.4-0.4-0.9-0.6-1.3l-2.6-5.7c0-0.1-0.1-0.4-0.3-0.4c-0.2,0-0.2,0.2-0.9,1.6l-3,5.7
		C7,23,6.5,22.8,6.5,23c0,0.1,0,0.1,0.1,0.1c0.3,0,0.7,0,1,0c0.3,0,0.7,0,1,0c0.2,0,0.3,0,0.3-0.2c0-0.3-0.9,0-0.9-0.7
		c0-0.1,0.1-0.3,0.1-0.4l0.8-1.6C9.1,20,9.3,20,9.5,20h2.7c0.3,0,0.4,0.2,0.5,0.4L13.2,21.4L13.2,21.4z"/>
	<path d="M20.5,16.6c0.1-0.1,0.1-0.1,0.2,0l1.2,2.7c0.1,0.1,0.1,0.2-0.2,0.2h-2.5c-0.2,0-0.2,0-0.2-0.2L20.5,16.6
		L20.5,16.6z M22.8,21.4c0.1,0.3,0.4,0.8,0.4,1.1c0,0.4-0.7,0.3-0.7,0.6c0,0.1,0.2,0.1,0.3,0.1c0.3,0,0.7,0,1,0c0.5,0,1,0,1.5,0
		c0.1,0,0.2,0,0.2-0.1c0-0.3-0.7,0-1.1-0.5c-0.3-0.4-0.4-0.9-0.6-1.3l-2.6-5.7c0-0.1-0.1-0.4-0.3-0.4c-0.2,0-0.2,0.2-0.9,1.6l-3,5.7
		c-0.3,0.6-0.9,0.4-0.9,0.7c0,0.1,0,0.1,0.1,0.1c0.3,0,0.7,0,1,0c0.3,0,0.7,0,1,0c0.2,0,0.3,0,0.3-0.2c0-0.3-0.9,0-0.9-0.7
		c0-0.1,0-0.3,0.1-0.4l0.8-1.6c0.1-0.2,0.3-0.2,0.6-0.2h2.7c0.3,0,0.4,0.2,0.5,0.4L22.8,21.4L22.8,21.4z"/>
	<path d="M27.9,16.3c0-0.1,0-0.5-0.1-0.5h-2c-0.8,0-0.8,0.2-1,0.8c0,0.1,0,0.3-0.2,0.3c-0.1,0-0.1-0.1-0.1-0.1l0.1-1.1
		c0-0.1,0-0.4,0.2-0.4c1,0,1.9,0,3.5,0c2.3,0,3.4,0,3.6,0c0.3,0,0.3,0.1,0.4,0.3l0.1,0.9c0,0.1,0,0.2-0.1,0.2
		c-0.5,0,0.2-0.8-1.1-0.8h-1.8c-0.6,0-0.5,0-0.5,0.5v5.7c0,0.9,1,0.6,1,0.9c0,0,0,0.1-0.1,0.1c-0.3,0-0.6,0-1,0c-1.4,0-1.6,0-1.7,0
		c-0.1,0-0.1,0-0.1-0.1c0-0.3,1-0.2,1-0.8V16.3L27.9,16.3z"/>
	<path d="M37.3,15.1c2.3,0,3,0.9,3.3,0.9c0.1,0,0.2-0.1,0.3-0.1c0.1,0,0.1,0.2,0.2,0.9c0,0.6,0.1,1-0.1,1
		c-0.1,0-0.2-0.3-0.3-0.4c-0.8-1.2-1.6-1.9-3.2-1.9c-2.4,0-3.6,1.5-3.6,3.5c0,1.9,1.2,3.9,3.6,3.9c1.9,0,3.2-1.1,3.3-1.6
		c0-0.1,0.1-0.1,0.2-0.1c0.1,0,0.1,0.1,0.1,0.1l-0.3,1.1c0,0-0.9,0.9-3.7,0.9c-2.5,0-4.4-1.6-4.4-3.9C32.8,17,34.7,15.1,37.3,15.1
		L37.3,15.1z"/>
	<path d="M42.9,16.2c0-0.8-1.1-0.6-1.1-0.8c0-0.1,0.1-0.1,0.2-0.1c0.5,0,0.9,0,1.4,0c0.4,0,0.8,0,1.2,0
		c0.2,0,0.2,0.1,0.2,0.1c0,0.2-0.9,0-0.9,0.8v2.4c0,0.2,0,0.2,0.2,0.2h4.5c0.1,0,0.1-0.3,0.1-0.3v-2.3c0-0.8-0.9-0.6-0.9-0.8
		c0-0.1,0-0.1,0.2-0.1c0.4,0,1.1,0,1.3,0c0.5,0,0.6,0,0.9,0c0.3,0,0.3,0.1,0.3,0.2c0,0.2-0.8,0-0.8,0.8v5.9c0,0.8,1.1,0.6,1.1,0.9
		c0,0,0,0.1-0.1,0.1c-0.3,0-0.7,0-1.2,0c-0.8,0-1.1,0-1.4,0c-0.1,0-0.3,0-0.3-0.1c0-0.3,0.9-0.1,0.9-0.8v-2.7c0-0.2,0-0.3-0.1-0.3
		H44c-0.1,0-0.1,0.1-0.1,0.2v2.8c0,0.8,1.2,0.5,1.2,0.9c0,0.1-0.1,0.1-0.2,0.1c-0.2,0-1.1,0-1.7,0c-0.9,0-1,0-1.1,0
		c-0.1,0-0.1-0.1-0.1-0.2c0-0.3,1,0,1-1.1V16.2L42.9,16.2z"/>
	<path d="M52.6,16.2c0-0.8-1-0.6-1-0.8c0-0.1,0-0.1,0.1-0.1c0.5,0,0.9,0,1.4,0c0.4,0,0.8,0,1.2,0c0.2,0,0.2,0,0.2,0.1
		c0,0.3-0.9,0-0.9,0.8v6c0,0.8,1.1,0.5,1.1,0.8c0,0.1,0,0.1-0.2,0.1c-0.3,0-0.8,0-1.4,0c-0.8,0-1,0-1.2,0c-0.2,0-0.3-0.1-0.3-0.2
		c0-0.3,1,0,1-1.1V16.2L52.6,16.2z"/>
	<path d="M28,13.8c-0.8,0-1.6-0.7-1.6-1.5c0-0.4,0.3-0.8,0.7-0.8c0.2,0,0.7,0.8,2,1.9C28.8,13.7,28.4,13.8,28,13.8
		L28,13.8z M28.6,10.1c0-0.1,0-0.2-0.1-0.2c-0.1,0-0.1,0.1-0.1,0.1c0,0-0.3-0.2-0.6-0.2c-0.5,0-1,0.3-1,0.8c0,0.3,0.1,0.5,0.3,0.7
		c-0.6,0.1-1,0.6-1,1.3c0,0.9,0.8,1.5,1.7,1.5c0.6,0,1.1-0.2,1.5-0.6c0.3,0.3,0.7,0.6,1.1,0.6c0.2,0,0.5-0.1,0.5-0.2c0,0,0,0,0,0
		c0,0-0.1,0-0.2,0c-0.3,0-0.8-0.6-1.1-0.8c0.2-0.3,0.2-0.7,0.3-1.1c0-0.3,0.3-0.2,0.3-0.3c0-0.1,0-0.1-0.1-0.1c-0.2,0-0.3,0-0.4,0
		c-0.1,0-0.3,0-0.5,0c0,0-0.1,0-0.1,0.1c0,0.2,0.6,0,0.6,0.7c0,0.3,0,0.5-0.2,0.6c-1.3-1.2-2.2-2.2-2.2-2.6c0-0.3,0.2-0.5,0.5-0.5
		c0.4,0,0.7,0.3,0.8,0.6c0,0,0,0.1,0.1,0.1c0,0,0.1,0,0.1,0L28.6,10.1L28.6,10.1z"/>
</g>
</svg>
