<?xml version="1.0" encoding="utf-8"?>
<!-- Generator: Adobe Illustrator 19.2.1, SVG Export Plug-In . SVG Version: 6.00 Build 0)  -->
<svg version="1.1" id="svg2521" xmlns:svg="http://www.w3.org/2000/svg"
	 xmlns="http://www.w3.org/2000/svg" xmlns:xlink="http://www.w3.org/1999/xlink" x="0px" y="0px" viewBox="0 0 987.1 591.1" xml:space="preserve">
<path id="path5649" d="M365.9-1.3c-19.4,0-33.2,9.7-33.2,33.4v418.6c0,9.3,6.2,13.3,14,13.3h48.7
	c19.5,0,33.3-9.7,33.3-33.5V12c0-9.4-6.2-13.3-14-13.3H365.9z M111.9,141.4c-74.2,0-113.2,43-113.2,97.8c0,48.7,30,78.4,89.9,91.8
	l95.6,21.4c19.4,4.4,25.5,9.8,25.5,19.8c0,7.6-6,13.7-23.6,13.7H37.8C14,385.9,4.5,399.6,4.5,419v31c0,7.8,3.8,14,13.2,14h162.7
	c87.9,0,123.3-43.1,123.3-94c0-52.6-30.4-82.3-89.9-95.6L118,253c-19.4-4.3-25.5-9.8-25.5-19.8c0-7.6,6-13.6,23.6-13.6h142.3
	c23.7,0,33.3-13.8,33.3-33.2v-30.9c0-7.8-3.9-14-13.2-14H111.9z M589.8,141.4c-14.7,0-22.5,3.9-31.2,13.3L434.5,288l111.4,162.3
	c6.4,9.4,11.8,13.7,21.5,13.7h66.3c9.9,0,15.7-4,15.7-12.3c0-5.1-2.5-8.5-5.8-13.2l-97.8-144.7l74.2-80l146.6,216.7l-64.8,137
	c-1.8,4-3.9,7.9-3.9,11.8c0,7.9,5.8,11.7,13.7,11.7h58.8c12,0,17.2-4.1,21.6-13.8l191.1-412.2c1.9-4.1,3.9-7.9,3.9-11.8
	c0-7.9-5.7-11.8-13.7-11.8h-59.3c-11.9,0-17.2,4.2-21.6,13.8L809,340.9L692.4,157.2c-7.2-11.4-14.8-15.7-32.1-15.7H589.8z"/>
</svg>
